<svg xmlns="http://www.w3.org/2000/svg" width="1280" height="720" viewBox="0 0 1280 720" role="img" aria-labelledby="title desc">
  <title id="title">Fieldwork QR pairing with explicit approval</title>
  <desc id="desc">A pairing screenshot showing a terminal QR code, phone scan state, and desktop approval prompt.</desc>
  <rect width="1280" height="720" fill="#eef5f2"/>
  <rect x="72" y="72" width="720" height="576" rx="16" fill="#11161a"/>
  <rect x="72" y="72" width="720" height="54" rx="16" fill="#20272e"/>
  <circle cx="108" cy="99" r="8" fill="#e05848"/>
  <circle cx="134" cy="99" r="8" fill="#f0b84d"/>
  <circle cx="160" cy="99" r="8" fill="#55b678"/>
  <text x="432" y="105" text-anchor="middle" font-family="Menlo, Consolas, monospace" font-size="17" fill="#c8d2dc">fw pair</text>
  <g font-family="Menlo, Consolas, monospace" font-size="22">
    <text x="112" y="170" fill="#87d787">$ fw pair</text>
    <text x="112" y="215" fill="#9fb4c8">Scan this QR with Fieldwork mobile.</text>
  </g>
  <rect x="114" y="250" width="220" height="220" fill="#f8fbfd"/>
  <g fill="#11161a">
    <rect x="130" y="266" width="36" height="36"/>
    <rect x="182" y="266" width="18" height="18"/>
    <rect x="234" y="266" width="52" height="18"/>
    <rect x="302" y="266" width="16" height="52"/>
    <rect x="130" y="318" width="18" height="52"/>
    <rect x="166" y="318" width="54" height="18"/>
    <rect x="252" y="318" width="34" height="34"/>
    <rect x="304" y="354" width="14" height="66"/>
    <rect x="130" y="388" width="70" height="18"/>
    <rect x="216" y="388" width="18" height="54"/>
    <rect x="252" y="388" width="50" height="18"/>
    <rect x="130" y="424" width="36" height="30"/>
    <rect x="184" y="442" width="52" height="12"/>
    <rect x="270" y="424" width="48" height="30"/>
  </g>
  <text x="112" y="520" font-family="Menlo, Consolas, monospace" font-size="22" fill="#9fb4c8">Pair request from "Jamie iPhone" - approve? [y/N]</text>
  <text x="112" y="565" font-family="Menlo, Consolas, monospace" font-size="22" fill="#d6e0ea">y</text>
  <text x="112" y="610" font-family="Menlo, Consolas, monospace" font-size="22" fill="#87d787">paired Jamie iPhone</text>
  <rect x="884" y="62" width="284" height="596" rx="38" fill="#161b20"/>
  <rect x="904" y="94" width="244" height="532" rx="28" fill="#f8fbfd"/>
  <text x="1026" y="154" text-anchor="middle" font-family="-apple-system, BlinkMacSystemFont, Segoe UI, sans-serif" font-size="24" font-weight="700" fill="#16212b">Pair Fieldwork</text>
  <rect x="936" y="205" width="180" height="180" rx="22" fill="#dcebe5"/>
  <path d="M952 328 L1012 268 L1048 304 L1100 240" fill="none" stroke="#1c7c5b" stroke-width="12" stroke-linecap="round" stroke-linejoin="round"/>
  <text x="1026" y="440" text-anchor="middle" font-family="-apple-system, BlinkMacSystemFont, Segoe UI, sans-serif" font-size="18" fill="#52616f">Waiting for desktop approval</text>
  <rect x="932" y="505" width="188" height="48" rx="12" fill="#1c7c5b"/>
  <text x="1026" y="535" text-anchor="middle" font-family="-apple-system, BlinkMacSystemFont, Segoe UI, sans-serif" font-size="17" font-weight="600" fill="#ffffff">Connected</text>
</svg>
